<svg id="Layer_1" data-name="Layer 1" xmlns="http://www.w3.org/2000/svg" viewBox="0 0 364.16 369.06"><defs><style>.cls-1{fill:#fff;}</style></defs><path class="cls-1" d="M339.29,354.87s-2.58,44.66,52.1,44.38c56.25-.3,129.11-27.2,206.4-26.77,63.55.35,70,33.49,67.42,46.37s-12.88,44.66-19.32,51.53c0,0-8.16-41.65-76.44-42.51-57.54-.72-125.79,3.8-155.45,1.86-23.07-1.51-85.87-10.45-86.73-49.09,0,0-9.1,4.1-9.37,26.26-.21,16.59,13.15,56.19,68.2,72.93,52,15.82,153.72,22.76,154.15,48.95.32,19.32-14,28.81-62,27.91C353.57,554.36,301.5,448.91,301.5,406.83,301.5,360.45,339.29,354.87,339.29,354.87Z" transform="translate(-301.5 -187.69)"/><path class="cls-1" d="M324.53,391.67s8.3,47.41,99.87,53.64c72,4.89,123.87-7.41,168.62,8.89C615.44,462.36,624.3,477,623,484.72c-5.33,30.52-27.26,39.12-51.86,52.45,0,0,1.5-32-36.45-45.38-51.05-18-105-14.39-134.84-21C371.06,464.42,319.79,444.71,324.53,391.67Z" transform="translate(-301.5 -187.69)"/><path class="cls-1" d="M350.89,368.61s3,15.41,35.64,15.46c46.8.07,165.32-41.65,224.15-43.37,27.92-.81,49,14.17,49,14.17-5.58-94.9-84.44-167.18-179.39-167.18-13,0-23.32.19-35.53,2.72,28.94,13.74,66.34,92.75-4.22,140.27,0,0,52.53-61.26,7.44-104.2l-63.12,3.86s38.83,14.95,37.36,58.4C420,351.87,367.63,367.32,350.89,368.61Z" transform="translate(-301.5 -187.69)"/></svg>