<svg id="Layer_1" data-name="Layer 1" xmlns="http://www.w3.org/2000/svg" viewBox="0 0 348.02 352.7"><path d="M374,343.37s-2.46,42.68,49.79,42.41c53.76-.28,123.39-26,197.25-25.58,60.73.33,66.89,32,64.43,44.31S673.13,447.19,667,453.76c0,0-7.8-39.81-73-40.63-55-.69-120.22,3.64-148.56,1.78-22.05-1.44-82.07-10-82.89-46.92,0,0-8.7,3.93-9,25.1-.2,15.85,12.57,53.7,65.17,69.7C468.41,477.9,565.61,484.53,566,509.57c.3,18.46-13.38,27.53-59.24,26.67C387.62,534,337.86,433.24,337.86,393,337.86,348.7,374,343.37,374,343.37Z" transform="translate(-337.86 -183.6)"/><path d="M359.87,378.53s7.92,45.32,95.44,51.27c68.79,4.67,118.38-7.09,161.14,8.49,21.43,7.81,29.89,21.83,28.6,29.17-5.09,29.17-26,37.38-49.56,50.13,0,0,1.44-30.56-34.83-43.37C511.87,457,460.3,460.47,431.8,454.15,404.33,448.06,355.33,429.23,359.87,378.53Z" transform="translate(-337.86 -183.6)"/><path d="M385.05,356.5s2.85,14.73,34.06,14.78c44.73.06,158-39.81,214.21-41.45,26.69-.78,46.78,13.54,46.78,13.54-5.33-90.69-80.69-159.77-171.43-159.77-12.38,0-22.29.18-33.95,2.6,27.66,13.13,63.4,88.64-4,134.05,0,0,50.19-58.54,7.1-99.58l-60.32,3.7s37.11,14.28,35.7,55.8C451.12,340.5,401.06,355.27,385.05,356.5Z" transform="translate(-337.86 -183.6)"/></svg>